<svg width="43" height="42" viewBox="0 0 43 42" fill="none" xmlns="http://www.w3.org/2000/svg">
<path d="M20.9613 2.10938C24.2763 2.10938 27.5966 3.05035 30.5632 4.8308C32.4448 5.96294 34.1356 7.38578 35.572 9.04724L30.6159 8.88377C30.0339 8.86432 29.5464 9.3208 29.5273 9.90319C29.5082 10.4852 29.9643 10.973 30.5467 10.9918L37.4038 11.2183C37.7977 11.3804 38.2506 11.2898 38.5518 10.9882C38.8527 10.6866 38.9427 10.2338 38.7799 9.83991L38.5541 2.98444C38.5409 2.40205 38.0581 1.94063 37.4757 1.95348C36.8936 1.96666 36.4315 2.44951 36.4447 3.03157C36.4447 3.03948 36.4447 3.04673 36.4454 3.05431L36.5759 7.00939C35.125 5.459 33.4669 4.11658 31.6485 3.02135C28.3543 1.0448 24.6586 0 20.9613 0C15.055 0 9.60952 2.43534 5.63005 6.85712C2.10476 10.7743 0 16.0467 0 20.9613C0 21.5436 0.471973 22.0159 1.05469 22.0159C1.6374 22.0159 2.10938 21.5436 2.10938 20.9613C2.10938 16.5537 4.01144 11.8085 7.19791 8.26842C10.7726 4.29719 15.6601 2.10938 20.9613 2.10938V2.10938Z" fill="#262A47"/>
<path d="M41.1334 19.9066C40.5507 19.9066 40.0787 20.3785 40.0787 20.9612C40.0787 25.3685 38.1767 30.114 34.9902 33.6544C31.4155 37.6256 26.528 39.8128 21.2268 39.8128C17.9118 39.8128 14.5915 38.8725 11.6249 37.092C9.74328 35.9596 8.05248 34.5367 6.61613 32.8756L11.5722 33.0391C12.1542 33.0579 12.6417 32.6014 12.6608 32.0193C12.6799 31.4373 12.2238 30.9498 11.6414 30.9303L4.78427 30.7043C4.39041 30.5421 3.93755 30.6331 3.63631 30.9343C3.33539 31.2359 3.24541 31.6884 3.40823 32.0823L3.634 38.9377C3.64718 39.5205 4.13003 39.9822 4.71242 39.969C5.29447 39.9562 5.75656 39.4733 5.74337 38.8909C5.74337 38.8834 5.74337 38.8761 5.74272 38.8682L5.6122 34.9131C7.06305 36.4638 8.72122 37.8056 10.5396 38.9015C13.8338 40.8784 17.5295 41.9228 21.2268 41.9228C27.1331 41.9228 32.5786 39.4878 36.558 35.066C40.0833 31.1485 42.1881 25.8761 42.1881 20.9612C42.1881 20.3785 41.7161 19.9066 41.1334 19.9066V19.9066Z" fill="#262A47"/>
</svg>
