<svg width="50" height="40" viewBox="0 0 50 40" fill="none" xmlns="http://www.w3.org/2000/svg">
<mask id="mask0" mask-type="alpha" maskUnits="userSpaceOnUse" x="0" y="0" width="50" height="40">
<rect width="50" height="40" fill="white"/>
</mask>
<g mask="url(#mask0)">
<rect width="6.06061" height="10.7071" rx="3.0303" transform="matrix(4.37114e-08 -1 -1 -4.37114e-08 38.0908 34)" stroke="#262A47" stroke-width="2"/>
<rect width="6.06061" height="13.3333" rx="3.0303" transform="matrix(4.37114e-08 -1 -1 -4.37114e-08 40.7173 27.9395)" stroke="#262A47" stroke-width="2"/>
<path d="M34.0506 21.8788L37.687 21.8788C39.3606 21.8788 40.7173 20.5221 40.7173 18.8485V18.8485C40.7173 17.1749 39.3606 15.8182 37.687 15.8182L34.0506 15.8182" stroke="#262A47" stroke-width="2"/>
<path d="M33.7476 9.75751L37.687 9.75751C39.3606 9.75751 40.7173 11.1142 40.7173 12.7878V12.7878C40.7173 14.4614 39.3606 15.8181 37.687 15.8181L34.0506 15.8181" stroke="#262A47" stroke-width="2"/>
<path d="M31.9293 33C32.4816 33 32.9293 33.4477 32.9293 34C32.9293 34.5523 32.4816 35 31.9293 35L31.9293 33ZM16.3738 18.8384C15.8215 18.8384 15.3738 18.3907 15.3738 17.8384C15.3738 17.2861 15.8215 16.8384 16.3738 16.8384L16.3738 18.8384ZM31.9293 35L16.0707 35L16.0707 33L31.9293 33L31.9293 35ZM8.00002 26.9293L8.00002 12.3838L10 12.3838L10 26.9293L8.00002 26.9293ZM16.0707 4.31313L29.6061 4.31313L29.6061 6.31313L16.0707 6.31313L16.0707 4.31313ZM34.6465 9.35354L34.6465 18.7475L32.6465 18.7475L32.6465 9.35354L34.6465 9.35354ZM26.3839 18.7475L26.3839 14.202L28.3839 14.202L28.3839 18.7475L26.3839 18.7475ZM25.8687 13.6869L24.3103 13.6869L24.3103 11.6869L25.8687 11.6869L25.8687 13.6869ZM19.1587 18.8384L16.3738 18.8384L16.3738 16.8384L19.1587 16.8384L19.1587 18.8384ZM23.8384 14.1587C23.8384 16.7432 21.7433 18.8384 19.1587 18.8384L19.1587 16.8384C20.6387 16.8384 21.8384 15.6387 21.8384 14.1587L23.8384 14.1587ZM24.3103 13.6869C24.0497 13.6869 23.8384 13.8981 23.8384 14.1587L21.8384 14.1587C21.8384 12.7936 22.9451 11.6869 24.3103 11.6869L24.3103 13.6869ZM26.3839 14.202C26.3839 13.9175 26.1532 13.6869 25.8687 13.6869L25.8687 11.6869C27.2578 11.6869 28.3839 12.8129 28.3839 14.202L26.3839 14.202ZM30.5152 22.8788C28.2335 22.8788 26.3839 21.0291 26.3839 18.7475L28.3839 18.7475C28.3839 19.9246 29.3381 20.8788 30.5152 20.8788L30.5152 22.8788ZM34.6465 18.7475C34.6465 21.0291 32.7968 22.8788 30.5152 22.8788L30.5152 20.8788C31.6923 20.8788 32.6465 19.9246 32.6465 18.7475L34.6465 18.7475ZM29.6061 4.31313C32.3898 4.31313 34.6465 6.5698 34.6465 9.35354L32.6465 9.35354C32.6465 7.67437 31.2853 6.31313 29.6061 6.31313L29.6061 4.31313ZM8.00002 12.3838C8.00002 7.9265 11.6134 4.31313 16.0707 4.31313L16.0707 6.31313C12.718 6.31313 10 9.03107 10 12.3838L8.00002 12.3838ZM16.0707 35C11.6134 35 8.00002 31.3866 8.00002 26.9293L10 26.9293C10 30.2821 12.718 33 16.0707 33L16.0707 35Z" fill="#262A47"/>
</g>
</svg>
