<svg width="50" height="44" viewBox="0 0 50 44" fill="none" xmlns="http://www.w3.org/2000/svg">
<mask id="mask0" mask-type="alpha" maskUnits="userSpaceOnUse" x="0" y="0" width="50" height="44">
<rect width="50" height="44" fill="#C4C4C4"/>
</mask>
<g mask="url(#mask0)">
<path d="M23.1039 32.4394L34.2285 32.4394C35.9021 32.4394 37.2588 33.7961 37.2588 35.4697V35.4697C37.2588 37.1433 35.9021 38.5 34.2285 38.5L23.1039 38.5" stroke="#262A47" stroke-width="2" stroke-linecap="round"/>
<path d="M27.552 26.3787L42.1142 26.3787C43.7878 26.3787 45.1445 27.7354 45.1445 29.409V29.409C45.1445 31.0826 43.7878 32.4393 42.1142 32.4393L27.552 32.4393" stroke="#262A47" stroke-width="2" stroke-linecap="round"/>
<path d="M27.5526 20.3182L46.3613 20.3182C48.0349 20.3182 49.3916 21.6749 49.3916 23.3485V23.3485C49.3916 25.0221 48.0349 26.3788 46.3613 26.3788L27.5526 26.3788" stroke="#262A47" stroke-width="2" stroke-linecap="round"/>
<path d="M18.3513 14.2575L42.1142 14.2575C43.7878 14.2575 45.1445 15.6142 45.1445 17.2878V17.2878C45.1445 18.9614 43.7878 20.3181 42.1142 20.3181L27.552 20.3181" stroke="#262A47" stroke-width="2" stroke-linecap="round"/>
<path d="M27.4516 38.5L11.5779 38.5C7.66916 38.5 4.50049 35.3313 4.50049 31.4226L4.50049 14.715C4.50049 11.7662 6.32883 9.12639 9.08933 8.08951L26.4405 1.57224C28.4458 0.819018 30.5859 2.3013 30.5859 4.44342V4.44342C30.5859 5.67739 29.8464 6.7912 28.7092 7.27008L20.4228 10.7593C19.168 11.2877 18.3521 12.5167 18.3521 13.8782L18.3521 15.8676C18.3521 19.4413 15.455 22.3384 11.8813 22.3384V22.3384L11.5779 22.3384" stroke="#262A47" stroke-width="2" stroke-linecap="round" stroke-linejoin="round"/>
</g>
</svg>
