<svg width="50" height="40" viewBox="0 0 50 40" fill="none" xmlns="http://www.w3.org/2000/svg">
<mask id="mask0" mask-type="alpha" maskUnits="userSpaceOnUse" x="0" y="0" width="50" height="40">
<rect width="50" height="40" fill="#C4C4C4"/>
</mask>
<g mask="url(#mask0)">
<rect width="6.06061" height="10.7071" rx="3.0303" transform="matrix(4.37114e-08 -1 -1 -4.37114e-08 33.5312 34.5)" stroke="#262A47" stroke-width="2"/>
<rect width="6.06061" height="13.3333" rx="3.0303" transform="matrix(4.37114e-08 -1 -1 -4.37114e-08 36.1582 28.4393)" stroke="#262A47" stroke-width="2"/>
<path d="M27.3697 33.5C27.922 33.5 28.3697 33.9477 28.3697 34.5C28.3697 35.0523 27.922 35.5 27.3697 35.5L27.3697 33.5ZM11.8142 19.3384C11.2619 19.3384 10.8142 18.8907 10.8142 18.3384C10.8142 17.7861 11.2619 17.3384 11.8142 17.3384L11.8142 19.3384ZM27.3697 35.5L11.5111 35.5L11.5111 33.5L27.3697 33.5L27.3697 35.5ZM3.44045 27.4293L3.44045 12.8838L5.44045 12.8838L5.44045 27.4293L3.44045 27.4293ZM11.5112 4.81313L25.0465 4.81313L25.0465 6.81313L11.5112 6.81313L11.5112 4.81313ZM30.0869 9.85354L30.0869 19.2475L28.0869 19.2475L28.0869 9.85354L30.0869 9.85354ZM21.8243 19.2475L21.8243 14.702L23.8243 14.702L23.8243 19.2475L21.8243 19.2475ZM21.3091 14.1869L19.7507 14.1869L19.7507 12.1869L21.3091 12.1869L21.3091 14.1869ZM14.5992 19.3384L11.8142 19.3384L11.8142 17.3384L14.5992 17.3384L14.5992 19.3384ZM19.2788 14.6587C19.2788 17.2432 17.1837 19.3384 14.5992 19.3384L14.5992 17.3384C16.0791 17.3384 17.2788 16.1387 17.2788 14.6587L19.2788 14.6587ZM19.7507 14.1869C19.4901 14.1869 19.2788 14.3981 19.2788 14.6587L17.2788 14.6587C17.2788 13.2936 18.3855 12.1869 19.7507 12.1869L19.7507 14.1869ZM21.8243 14.702C21.8243 14.4175 21.5936 14.1869 21.3091 14.1869L21.3091 12.1869C22.6982 12.1869 23.8243 13.3129 23.8243 14.702L21.8243 14.702ZM25.9556 23.3788C23.6739 23.3788 21.8243 21.5291 21.8243 19.2475L23.8243 19.2475C23.8243 20.4246 24.7785 21.3788 25.9556 21.3788L25.9556 23.3788ZM30.0869 19.2475C30.0869 21.5291 28.2373 23.3788 25.9556 23.3788L25.9556 21.3788C27.1327 21.3788 28.0869 20.4246 28.0869 19.2475L30.0869 19.2475ZM25.0465 4.81313C27.8303 4.81313 30.0869 7.0698 30.0869 9.85354L28.0869 9.85354C28.0869 8.17437 26.7257 6.81313 25.0465 6.81313L25.0465 4.81313ZM3.44045 12.8838C3.44045 8.4265 7.05383 4.81313 11.5112 4.81313L11.5112 6.81313C8.1584 6.81313 5.44045 9.53107 5.44045 12.8838L3.44045 12.8838ZM11.5111 35.5C7.05382 35.5 3.44045 31.8866 3.44045 27.4293L5.44045 27.4293C5.44045 30.7821 8.15839 33.5 11.5111 33.5L11.5111 35.5Z" fill="#262A47"/>
<path d="M29.3907 16.2809L46.5732 20.8849C48.1898 21.3181 49.1491 22.9797 48.7159 24.5963V24.5963C48.2828 26.2128 46.6212 27.1722 45.0046 26.739L36.0574 24.3416" stroke="#262A47" stroke-width="2" stroke-linecap="round"/>
<path d="M29.2888 16.1989L44.9558 12.001C46.5723 11.5678 47.5317 9.90619 47.0985 8.28963V8.28963C46.6654 6.67306 45.0037 5.71372 43.3872 6.14688L29.3199 9.91618" stroke="#262A47" stroke-width="2" stroke-linecap="round"/>
</g>
</svg>
