<?xml version="1.0" encoding="utf-8"?>
<!-- Generator: Adobe Illustrator 26.4.1, SVG Export Plug-In . SVG Version: 6.00 Build 0)  -->
<svg version="1.1" id="Ebene_1" xmlns="http://www.w3.org/2000/svg" xmlns:xlink="http://www.w3.org/1999/xlink" x="0px" y="0px"
	 viewBox="0 0 316.5 752.8" style="enable-background:new 0 0 316.5 752.8;" xml:space="preserve">
<style type="text/css">
	.st0{fill:#FFD9D9;}
	.st1{fill:#FFC9C9;}
	.st2{fill:#FFFFFF;}
	.st3{fill:#21CFCB;}
	.st4{fill:#FF6230;}
	.st5{fill:#FFD000;}
	.st6{fill:#1B48C6;}
	.st7{fill:#2678FF;}
</style>
<g id="Design">
	<path class="st0" d="M304,256.3c-15.7-15.7-41-16-57.1-0.8l-21.7,20.4c-0.9,0.8-2,1.3-3.2,1.2h-55.8c-17.9,0-34.9,7.8-46.6,21.4
		l-7.1-6.1c13.5-15.6,33.1-24.6,53.7-24.6h51.2V97.1c0-12-8.6-24.4-22.9-24.4c-12.6,0-22.9,10.2-22.9,22.9v112.7h-9.3V70.7
		c0-12.9-9.2-26.3-24.7-26.3c-13.7,0-24.7,11.1-24.7,24.7v139.2h-9.3V67.3c0.1-6-2.2-11.8-6.4-16.2c-4.3-4.4-10.3-6.9-16.5-6.8
		c-12.6,0-22.9,10.3-22.9,22.9v141h-9.3v-94.5c0-10.8-8.7-19.5-19.5-19.5c-12.7,0-19.5,10.5-19.5,20.5V313
		c0,25.3,8.3,48.7,23.3,65.8c0.8,0.9,1.2,2,1.2,3.1v90.9h168.8v-90.9c0-1.3,0.5-2.5,1.4-3.3c0.1-0.1,12.1-11.9,18-18.5l82.2-89.2
		C308.2,266.7,308,260.2,304,256.3z"/>
	<rect x="33.6" y="409" class="st1" width="169" height="99.9"/>
	<rect x="32.7" y="433.1" class="st2" width="170.7" height="258.4"/>
	<rect x="23.2" y="461.1" class="st3" width="189.8" height="287.2"/>
</g>
</svg>
