<?xml version="1.0" encoding="utf-8"?>
<!-- Generator: Adobe Illustrator 26.4.1, SVG Export Plug-In . SVG Version: 6.00 Build 0)  -->
<svg version="1.1" id="Ebene_1" xmlns="http://www.w3.org/2000/svg" xmlns:xlink="http://www.w3.org/1999/xlink" x="0px" y="0px"
	 viewBox="0 0 316.5 752.8" style="enable-background:new 0 0 316.5 752.8;" xml:space="preserve">
<style type="text/css">
	.st0{fill:#FFD9D9;}
	.st1{fill:#FFC9C9;}
	.st2{fill:#FFFFFF;}
	.st3{fill:#21CFCB;}
	.st4{fill:#FF6230;}
	.st5{fill:#FFD000;}
	.st6{fill:#1B48C6;}
	.st7{fill:#2678FF;}
</style>
<g id="Design_00000170961321604501603410000010898619902689826217_">
	<path class="st0" d="M148.9,220.7l0.1-56.2l0-0.4c0-15.9-12.9-28.8-28.8-28.9c-15.9,0-28.8,12.9-28.9,28.8l0,0l-0.1,40.6l0,0
		l0,17.3c2.1-0.9,4.3-1.4,6.6-1.4L148.9,220.7z"/>
	<path class="st0" d="M216.7,164.6c-0.1-16.1-13.3-29.1-29.4-29c-15.9,0.1-28.8,13-29,28.9l-0.1,56.2l58.4,0.1L216.7,164.6z"/>
	<path class="st0" d="M274,234.3l0.1-72.1c0-13.3-10.7-24.1-24-24.1c-13.3,0-24.1,10.7-24.1,24l0,2.6l-0.1,56.2l9.6,0
		C249.5,220.8,263,225.6,274,234.3z"/>
	<path class="st0" d="M55.1,272.6c14.8,0,26.8-12,26.8-26.7l0-2.3l0-7.1l0-31.8c-0.3-14.8-12.5-26.6-27.3-26.3
		c-14.4,0.3-26,11.8-26.3,26.2l-0.1,41.2C28.4,260.5,40.3,272.5,55.1,272.6z"/>
	<path class="st0" d="M288.1,280.5l-0.1-1c0-0.5-0.1-1-0.1-1.5c0-0.5-0.1-0.8-0.2-1.3c-0.1-0.4-0.1-0.8-0.2-1.3
		c-0.1-0.4-0.1-0.9-0.2-1.3l-0.2-1.1l-0.3-1.4c-0.1-0.4-0.2-0.7-0.2-1.1c-0.1-0.4-0.2-0.9-0.3-1.3c-0.1-0.4-0.2-0.7-0.3-1.1
		s-0.2-0.8-0.4-1.2c-0.1-0.4-0.3-0.8-0.4-1.3s-0.2-0.7-0.4-1c-0.2-0.6-0.4-1.1-0.7-1.7c-0.1-0.2-0.1-0.4-0.2-0.5
		c-8.3-19.5-27.4-32.2-48.6-32.3l-137.6-0.2c-3.6,0-6.6,2.9-6.6,6.6l0,7.1c0,25,20.2,45.2,45.1,45.3l67.6,0.1l0.8,0l0,9.3l-0.8,0
		c-26.3,0-48.2,20-50.6,46.2c-0.1,1.5-0.2,3-0.2,4.5l0,16.4l-9.3,0l0-16.4c0-1.2,0-2.4,0.1-3.5c1.2-19.3,11.6-36.9,27.9-47.2
		l-35.4,0c-22,0-41.9-13.3-50.3-33.7c-10.3,17.1-32.4,22.6-49.5,12.3c-3.1-1.8-5.8-4.1-8.2-6.8l-0.1,35.7c0,24.3,12,51.6,32.2,74.5
		c0.9,0.7,1.8,1.3,2.8,1.9l0,1.2c1.1,1.2,2.2,2.3,3.3,3.4c0.9,0.9,1.4,2.1,1.4,3.3l-0.1,66.7l168.9,0.2l0.1-66.7
		c0-1.4,0.6-2.8,1.8-3.6c8.6-6.9,16.4-14.9,23.1-23.7c4.4-5.8,8.3-12,11.7-18.5c9.8-19,14.9-40,14.9-61.3
		C288.2,282.2,288.2,281.3,288.1,280.5z"/>
	
		<rect x="102.3" y="372.4" transform="matrix(1.333693e-03 -1 1 1.333693e-03 -305.1063 608.7943)" class="st1" width="99.9" height="169.6"/>
	
		<rect x="138.3" y="360" transform="matrix(1.333693e-03 -1 1 1.333693e-03 -293.261 596.9881)" class="st2" width="28" height="170.7"/>
	<polygon class="st5" points="237.6,459.4 66.9,459.2 57.4,459.2 55.7,745.2 246.8,745.2 247.1,459.5 	"/>
</g>
</svg>
