<?xml version="1.0" encoding="utf-8"?>
<!-- Generator: Adobe Illustrator 26.4.1, SVG Export Plug-In . SVG Version: 6.00 Build 0)  -->
<svg version="1.1" id="Ebene_1" xmlns="http://www.w3.org/2000/svg" xmlns:xlink="http://www.w3.org/1999/xlink" x="0px" y="0px"
	 viewBox="0 0 316.5 752.8" style="enable-background:new 0 0 316.5 752.8;" xml:space="preserve">
<style type="text/css">
	.st0{fill:#FFD9D9;}
	.st1{fill:#FFC9C9;}
	.st2{fill:#FFFFFF;}
	.st3{fill:#21CFCB;}
	.st4{fill:#FF6230;}
	.st5{fill:#FFD000;}
	.st6{fill:#1B48C6;}
	.st7{fill:#2678FF;}
</style>
<g id="Design_00000061438708890954323100000000128239543708658353_">
	<path class="st0" d="M65.5,300c12.5,0,22.9-9.3,24.4-21.7l0-0.6c0-0.9,0.1-1.8,0.2-2.7v-35.4c-0.6-13.6-12.1-24.1-25.7-23.5
		c-12.7,0.6-22.9,10.7-23.5,23.4l0,35.8C40.9,288.9,51.9,300,65.5,300z"/>
	<path class="st0" d="M255.9,50.2c-12.5-1.8-24,6.9-25.8,19.4l-22,150.6c-0.4,2.6-2.8,4.3-5.3,3.9c-2-0.3-3.6-1.9-3.9-3.9L177,70.1
		c-1.6-12.5-13-21.4-25.5-19.9s-21.4,13-19.9,25.5c0,0.2,0.1,0.5,0.1,0.7l15.8,112.2c6.7,6.4,10.5,15.2,10.5,24.5v44.7h40.7
		c21.4,0,41.3,11.1,52.5,29.3c0.3-40.7,1.8-51.4,10.2-110.2c3.3-23.5,7.9-55.8,14-101C277.1,63.5,268.4,51.9,255.9,50.2z"/>
	<path class="st0" d="M148.7,257.9l0-44.7c0-7.3-3.2-14.2-8.8-18.9l-0.6-0.5c-0.4-0.3-0.8-0.6-1.2-0.9c-0.2-0.2-0.5-0.3-0.8-0.5
		c-0.4-0.2-0.8-0.5-1.1-0.7c-0.4-0.2-0.6-0.3-0.9-0.5c-0.3-0.2-0.7-0.4-1.1-0.5c-0.4-0.2-0.7-0.3-1-0.4c-0.3-0.1-0.7-0.3-1-0.4
		s-0.7-0.2-1.1-0.3c-0.3-0.1-0.7-0.2-1.1-0.3c-0.4-0.1-0.7-0.2-1.1-0.2c-0.4-0.1-0.9-0.1-1.3-0.2c-0.4-0.1-0.6-0.1-0.9-0.1
		c-0.8-0.1-1.6-0.1-2.3-0.1c-13.6,0-24.6,11-24.6,24.6v26.4l0,0l0,21.2c3.1-1.9,6.7-2.9,10.3-2.9L148.7,257.9z"/>
	<path class="st0" d="M198.7,267.2H158h-9.3l-38.9,0c-5,0-9.3,3.5-10.3,8.4c0,0,0,0.1,0,0.1c-0.1,0.7-0.2,1.3-0.2,2
		c0,0.4,0,0.7,0,1.1c0.6,20.2,17.1,36.2,37.3,36.2h44.9l0,4.7l0,4.7c-24.4,0-44.2,19.8-44.2,44.2l0,14.5H128l0-14.5
		c0-17.7,8.8-34.3,23.4-44.2h-14.8c-19.1,0-36.3-11.7-43.4-29.4c-10.8,15.3-31.9,19-47.2,8.2c-1.8-1.3-3.6-2.8-5.1-4.4l0,20.3
		c0,23,7.2,45.4,20.5,64.1c0.6,0.8,0.9,1.7,0.9,2.7l0,95.1l168.9,0v-96.4c0-0.9,0.3-1.8,0.8-2.6c12.6-18.3,19.3-40,19.2-62.3l0,0
		C251.1,290.7,227.7,267.2,198.7,267.2z"/>
	<rect x="62.3" y="411.5" class="st1" width="168.9" height="99.9"/>
	<rect x="61.5" y="435.6" class="st2" width="170.7" height="28"/>
	<polygon class="st4" points="232.2,463.6 61.5,463.6 52,463.6 52,748.3 241.7,748.3 241.7,463.6 	"/>
</g>
</svg>
